<svg xmlns="http://www.w3.org/2000/svg" width="16.49" height="16.487" viewBox="0 0 16.49 16.487">
  <path id="Icon_awesome-instagram" data-name="Icon awesome-instagram" d="M8.242,6.254a4.227,4.227,0,1,0,4.227,4.227A4.22,4.22,0,0,0,8.242,6.254Zm0,6.975a2.748,2.748,0,1,1,2.748-2.748A2.753,2.753,0,0,1,8.242,13.229Zm5.386-7.148a.986.986,0,1,1-.986-.986A.984.984,0,0,1,13.628,6.081Zm2.8,1A4.879,4.879,0,0,0,15.1,3.627,4.911,4.911,0,0,0,11.641,2.3c-1.361-.077-5.441-.077-6.8,0A4.9,4.9,0,0,0,1.384,3.624,4.9,4.9,0,0,0,.053,7.078c-.077,1.361-.077,5.441,0,6.8a4.879,4.879,0,0,0,1.332,3.454,4.917,4.917,0,0,0,3.454,1.332c1.361.077,5.441.077,6.8,0A4.879,4.879,0,0,0,15.1,17.335a4.911,4.911,0,0,0,1.332-3.454c.077-1.361.077-5.437,0-6.8Zm-1.758,8.259A2.782,2.782,0,0,1,13.1,16.908c-1.085.43-3.66.331-4.86.331s-3.778.1-4.86-.331a2.782,2.782,0,0,1-1.567-1.567c-.43-1.085-.331-3.66-.331-4.86s-.1-3.778.331-4.86A2.782,2.782,0,0,1,3.382,4.054c1.085-.43,3.66-.331,4.86-.331s3.778-.1,4.86.331a2.782,2.782,0,0,1,1.567,1.567c.43,1.085.331,3.66.331,4.86S15.1,14.259,14.669,15.341Z" transform="translate(0.005 -2.238)" fill="#fff"/>
</svg>
