<svg xmlns="http://www.w3.org/2000/svg" width="18.769" height="15.273" viewBox="0 0 18.769 15.273">
  <path id="Icon_ionic-logo-twitter" data-name="Icon ionic-logo-twitter" d="M20.183,6.31a7.785,7.785,0,0,1-2.211.609,3.864,3.864,0,0,0,1.694-2.132,7.652,7.652,0,0,1-2.446.935,3.85,3.85,0,0,0-6.662,2.633,3.77,3.77,0,0,0,.1.879A10.913,10.913,0,0,1,2.718,5.2a3.858,3.858,0,0,0,1.2,5.147,3.761,3.761,0,0,1-1.75-.481v.048A3.854,3.854,0,0,0,5.255,13.7a3.876,3.876,0,0,1-1.014.135,3.633,3.633,0,0,1-.724-.072,3.857,3.857,0,0,0,3.6,2.677,7.721,7.721,0,0,1-4.785,1.651,7.806,7.806,0,0,1-.919-.056,10.764,10.764,0,0,0,5.894,1.742A10.891,10.891,0,0,0,18.273,8.8c0-.167,0-.334-.012-.5A7.839,7.839,0,0,0,20.183,6.31Z" transform="translate(-1.413 -4.5)" fill="#fff"/>
</svg>
