<svg xmlns="http://www.w3.org/2000/svg" width="70.725" height="12.223" viewBox="0 0 70.725 12.223">
  <path id="Path_17177" data-name="Path 17177" d="M12.931,6.459C11.535,5.737.893,5.844.137,5.609-.471,5.315.885.824,1.52.186c.224-.228.464-.252,1-.111.845.257,12.034.487,12.034.487.137.15.615-.3.684-.124.226.415,18.348.9,19.891.968.936.039.175.272,1.284.224,2.362-.084,7.457.418,9.251.268a8.657,8.657,0,0,1,3.1.13,64.181,64.181,0,0,0,9.688.168c.214-.076.37-.035.362.066,0,.021,5.219.393,5.237.474a.251.251,0,0,0,.34.1c.28-.089,5.875-.154,5.941.147a11.3,11.3,0,0,1-1.549,5.23c-.732.893-4.284-.36-7.248.036l-13.6-.722L45,7.707c-.309-.322-1.654.367-2.386-.218a7.531,7.531,0,0,0-3.152-.2C39,7.44,27.194,6.32,25.932,6.859,23.81,6.225,14.976,6.452,12.931,6.459Z" transform="translate(0.017 3.695) rotate(-3)" fill="#00a3e1"/>
</svg>
