<svg xmlns="http://www.w3.org/2000/svg" width="226.171" height="12.751" viewBox="0 0 226.171 12.751">
  <path id="Path_17176" data-name="Path 17176" d="M41.573,6.653C37.089,5.909,2.9,6.019.475,5.777c-1.95-.3,2.4-4.928,4.445-5.586A7.937,7.937,0,0,1,8.132.078c2.715.265,38.656.5,38.656.5.44.154,1.975-.31,2.2-.128.726.427,58.935.93,63.892,1,3.007.041.561.28,4.126.23,7.589-.087,23.952.43,29.715.276a85.889,85.889,0,0,1,9.949.134c4.444.234,28.317.45,31.121.173.687-.078,1.187-.036,1.164.068,0,.022,16.766.4,16.821.488a1.882,1.882,0,0,0,1.094.1c.9-.092,18.873-.159,19.084.151.668.883-2.682,4.525-4.975,5.386-2.352.92-13.76-.37-23.281.037L154.022,7.75l-9.447.188c-.992-.332-5.311.378-7.665-.225a74.249,74.249,0,0,0-10.124-.206c-1.472.155-39.4-1-43.451-.443C76.517,6.412,48.141,6.645,41.573,6.653Z" transform="translate(0.016 3.958) rotate(-1)" fill="#00a3e1"/>
</svg>
