<svg xmlns="http://www.w3.org/2000/svg" width="132.268" height="11.112" viewBox="0 0 132.268 11.112">
  <path id="Path_17175" data-name="Path 17175" d="M24.294,6.653c-2.621-.743-22.6-.633-24.023-.875-1.14-.3,1.405-4.928,2.6-5.586A2.786,2.786,0,0,1,4.747.078c1.587.265,22.6.5,22.6.5C27.6.733,28.5.269,28.626.451c.425.427,34.449.93,37.347,1,1.758.041.328.28,2.412.23,4.436-.087,14,.43,17.369.276a29.41,29.41,0,0,1,5.815.134c2.6.234,16.552.45,18.191.173.4-.078.694-.036.68.068,0,.022,9.8.4,9.833.488.061.106.352.165.639.1.526-.092,11.032-.159,11.155.151.39.883-1.567,4.525-2.908,5.386-1.375.92-8.043-.37-13.608.037L90.024,7.75,84.5,7.938c-.58-.332-3.1.378-4.48-.225A25.46,25.46,0,0,0,74.1,7.507c-.86.155-23.03-1-25.4-.443C44.72,6.412,28.133,6.645,24.294,6.653Z" transform="translate(0.016 2.318) rotate(-1)" fill="#00a3e1"/>
</svg>
