<svg xmlns="http://www.w3.org/2000/svg" width="224.578" height="35.388" viewBox="0 0 224.578 35.388">
  <g id="Group_297" data-name="Group 297" transform="translate(-490.073 -1566.226)">
    <path id="Path_17175" data-name="Path 17175" d="M37.181,7.674C33.171,6.817,2.6,6.944.423,6.665-1.322,6.316,2.573.981,4.4.223A5.558,5.558,0,0,1,7.272.092C9.7.4,41.846.67,41.846.67c.393.178,1.767-.358,1.964-.147.65.492,52.712,1.073,57.146,1.15,2.69.047.5.323,3.69.266,6.787-.1,21.423.5,26.578.318a59.621,59.621,0,0,1,8.9.154c3.975.27,25.327.519,27.834.2.614-.09,1.062-.042,1.041.079,0,.025,15,.467,15.045.563a1.341,1.341,0,0,0,.978.117c.805-.106,16.88-.183,17.069.175.6,1.018-2.4,5.219-4.449,6.211-2.1,1.061-12.307-.427-20.823.043l-39.06-.857-8.449.217c-.888-.383-4.751.436-6.856-.259A51.566,51.566,0,0,0,113.4,8.66c-1.316.179-35.238-1.151-38.863-.511C68.436,7.4,43.056,7.666,37.181,7.674Z" transform="translate(490.09 1591.471) rotate(-1)" fill="#00a3e1"/>
    <path id="Path_17177" data-name="Path 17177" d="M20.034,6.821C17.872,6.058,1.392,6.171.22,5.923-.72,5.613,1.38.871,2.363.2c.348-.241.719-.266,1.549-.117C5.221.351,22.548.594,22.548.594c.212.158.952-.318,1.059-.131.35.438,28.412.954,30.8,1.022,1.45.042.271.287,1.989.236,3.658-.089,11.547.441,14.326.283a19.549,19.549,0,0,1,4.8.137c2.142.24,13.652.461,15,.177.331-.08.572-.037.561.07,0,.022,8.083.415,8.109.5.05.109.29.169.527.1.434-.094,9.1-.163,9.2.155.322.905-1.293,4.639-2.4,5.522-1.134.943-6.634-.38-11.224.038L74.245,7.946l-4.554.193c-.478-.34-2.561.387-3.7-.231A16.942,16.942,0,0,0,61.114,7.7c-.71.159-18.994-1.023-20.948-.454C36.88,6.573,23.2,6.813,20.034,6.821Z" transform="translate(605.549 1568.14) rotate(-1)" fill="#00a3e1"/>
  </g>
</svg>
