<svg xmlns="http://www.w3.org/2000/svg" width="114.298" height="12.242" viewBox="0 0 114.298 12.242">
  <path id="Path_17175" data-name="Path 17175" d="M20.983,7.745C18.718,6.88,1.458,7.008.232,6.726-.753,6.374,1.446.99,2.476.225c.364-.273.753-.3,1.622-.133C5.469.4,23.616.676,23.616.676c.222.18,1-.361,1.109-.149.367.5,29.757,1.083,32.26,1.16,1.518.047.283.326,2.083.268,3.832-.1,12.094.5,15,.321a18.9,18.9,0,0,1,5.023.156c2.244.273,14.3.524,15.713.2.347-.091.6-.042.588.08,0,.025,8.465.471,8.493.568.052.123.3.192.552.118.454-.107,9.529-.185,9.636.176.337,1.028-1.354,5.267-2.512,6.269-1.188,1.071-6.948-.431-11.755.043l-22.05-.865-4.77.219c-.5-.386-2.682.44-3.87-.262a16.393,16.393,0,0,0-5.112-.24c-.743.181-19.893-1.162-21.939-.516C38.626,7.465,24.3,7.737,20.983,7.745Z" transform="translate(0.016 2.004) rotate(-1)" fill="#00a3e1"/>
</svg>
