<svg xmlns="http://www.w3.org/2000/svg" width="166.868" height="13.159" viewBox="0 0 166.868 13.159">
  <path id="Path_17175" data-name="Path 17175" d="M30.656,7.745C27.349,6.88,2.138,7.008.346,6.726-1.093,6.374,2.119.99,3.624.225A3.788,3.788,0,0,1,5.993.093C8,.4,34.5.676,34.5.676c.324.18,1.457-.361,1.619-.149.536.5,43.465,1.083,47.121,1.16,2.218.047.414.326,3.043.268,5.6-.1,17.665.5,21.915.321a40.2,40.2,0,0,1,7.337.156c3.277.273,20.884.524,22.952.2.506-.091.876-.042.858.08,0,.025,12.365.471,12.406.568.077.123.444.192.807.118.664-.107,13.919-.185,14.074.176.493,1.028-1.978,5.267-3.669,6.269-1.735,1.071-10.148-.431-17.17.043l-32.208-.865-6.967.219c-.732-.386-3.917.44-5.653-.262A34.793,34.793,0,0,0,93.5,8.74c-1.085.181-29.057-1.162-32.045-.516C56.428,7.465,35.5,7.737,30.656,7.745Z" transform="translate(0.016 2.922) rotate(-1)" fill="#00a3e1"/>
</svg>
