<svg xmlns="http://www.w3.org/2000/svg" width="120.467" height="9.467" viewBox="0 0 120.467 9.467">
  <path id="Path_17177" data-name="Path 17177" d="M22.127,5.563C19.74,4.941,1.539,5.033.245,4.83-.793,4.577,1.525.708,2.612.158a2.746,2.746,0,0,1,1.71-.1C5.768.284,24.9.482,24.9.482c.234.129,1.052-.259,1.169-.107.387.357,31.379.778,34.018.834,1.6.034.3.234,2.2.193,4.04-.073,12.753.36,15.821.231a29.156,29.156,0,0,1,5.3.112c2.366.2,15.077.376,16.569.145.366-.065.632-.03.62.057,0,.018,8.927.339,8.956.408.055.089.32.138.582.085.479-.077,10.048-.133,10.161.127.356.739-1.428,3.785-2.649,4.505-1.252.769-7.326-.31-12.4.031L82,6.481l-5.03.157c-.528-.277-2.828.316-4.081-.188A25.231,25.231,0,0,0,67.5,6.278c-.784.13-20.977-.835-23.135-.371C40.732,5.361,25.624,5.557,22.127,5.563Z" transform="translate(0.016 2.113) rotate(-1)" fill="#00a3e1"/>
</svg>
